<svg width="153" height="112" viewBox="0 0 153 112" fill="none" xmlns="http://www.w3.org/2000/svg">
<path d="M13.1858 61.6798L60.8399 101.346C62.8178 102.992 65.4286 103.909 68.1449 103.909C70.8612 103.909 73.472 102.992 75.4499 101.346L76.1356 100.781C71.0985 94.1744 68.1449 86.18 68.1449 77.5744C68.1449 54.72 88.9259 36.192 114.559 36.192C122.023 36.192 129.064 37.7673 135.314 40.5418C135.551 39.0135 135.657 37.4852 135.657 35.9333V34.5696C135.657 18.1342 122.339 4.12062 104.169 1.41666C92.1433 -0.370305 79.9068 3.13309 71.3095 10.7982L68.1449 13.6198L64.9803 10.7982C56.383 3.13309 44.1465 -0.370305 32.1209 1.41666C13.9506 4.12062 0.632812 18.1342 0.632812 34.5696V35.9333C0.632812 45.6911 5.16878 55.0257 13.1858 61.6798ZM114.559 111.433C124.631 111.433 134.29 107.865 141.412 101.516C148.534 95.1661 152.535 86.5542 152.535 77.5744C152.535 68.5946 148.534 59.9826 141.412 53.6329C134.29 47.2833 124.631 43.716 114.559 43.716C104.488 43.716 94.8285 47.2833 87.7067 53.6329C80.5849 59.9826 76.5839 68.5946 76.5839 77.5744C76.5839 86.5542 80.5849 95.1661 87.7067 101.516C94.8285 107.865 104.488 111.433 114.559 111.433ZM118.779 62.5262V73.8123H131.437C133.758 73.8123 135.657 75.5052 135.657 77.5744C135.657 79.6435 133.758 81.3364 131.437 81.3364H118.779V92.6225C118.779 94.6916 116.88 96.3845 114.559 96.3845C112.239 96.3845 110.34 94.6916 110.34 92.6225V81.3364H97.6814C95.3607 81.3364 93.4619 79.6435 93.4619 77.5744C93.4619 75.5052 95.3607 73.8123 97.6814 73.8123H110.34V62.5262C110.34 60.4571 112.239 58.7642 114.559 58.7642C116.88 58.7642 118.779 60.4571 118.779 62.5262Z" fill="black"/>
</svg>
