<svg xmlns="http://www.w3.org/2000/svg" viewBox="0 0 28 35" x="0px" y="0px"><title>communication</title><g data-name="Layer 2"><circle cx="12" cy="8" r="7"/><path d="M17.305,17H6.7A5.7,5.7,0,0,0,1,22.7V26a1,1,0,0,0,1,1H22a1,1,0,0,0,1-1V22.7A5.7,5.7,0,0,0,17.305,17Z"/><polygon points="24.5 13 24.5 10.5 22.5 10.5 22.5 13 20 13 20 15 22.5 15 22.5 17.5 24.5 17.5 24.5 15 27 15 27 13 24.5 13"/></g><text x="0" y="43" fill="#000000" font-size="5px" font-weight="bold" font-family="'Helvetica Neue', Helvetica, Arial-Unicode, Arial, Sans-serif">Created by Ilham Fitrotul Hayat</text><text x="0" y="48" fill="#000000" font-size="5px" font-weight="bold" font-family="'Helvetica Neue', Helvetica, Arial-Unicode, Arial, Sans-serif">from the Noun Project</text></svg>